# xmcd
#
# Track frame offsets:
#	150
#	21013
#	37708
#	49870
#	68503
#	81335
#	96923
#	106393
#	118410
#	132730
#	159770
#
# Disc length: 2342 seconds
#
# Revision: 1
# Processed by: cddbd v1.5.2PL0 Copyright (c) Steve Scherf et al.
# Submitted via: audiograbber 1.83.01
#
DISCID=8b09240b
DTITLE=Cooke Records and Maggard Sound - Compulation Disc Vol.Three
DYEAR=1900
DGENRE=
TTITLE0=The Singing Cookes - I Hope We Walk The Last Mile Together
TTITLE1=Terry Terrell - Jesus Saves Today
TTITLE2=Thersa Bellamy - I'll Follow Thee
TTITLE3=The Cooke Brothers - All Aboard
TTITLE4=Trinity Heirs - Now We've Got Jesus
TTITLE5=The Longs - Jethowah Shalom
TTITLE6=Harveys - Press Along Weary Children
TTITLE7=The Gospel Foundation - Resurrection Day
TTITLE8=The Crisp Family - Oh What A Sound
TTITLE9=Southern Aires - Come Walk With Me
TTITLE10=Lee Smith Singers - I'm Not Ashamed
EXTD=
EXTT0=
EXTT1=
EXTT2=
EXTT3=
EXTT4=
EXTT5=
EXTT6=
EXTT7=
EXTT8=
EXTT9=
EXTT10=
PLAYORDER=
